PathFileType	4	(X/Y/Z)	C:\Users\WrightLab\Desktop\Jo\P1.2Trial9.trc
DataRate	CameraRate	NumFrames	NumMarkers	Units	OrigDataRate	OrigDataStartFrame	OrigNumFrames
100.00	100.00	       39	19	mm	100.00	1	       538
Frame#	Time	Headset_Front			Headset_Back			Headset_Left			Headset_Right			Left_Shoulder			Right_Shoulder			Sternum			C7			Left Elbow			Right Elbow			Left Wrist			Right Wrist			Left ASIS			Right ASIS			S2			Left Knee			Right Knee			Left Ankle			Right Ankle			
		X1	Y1	Z1	X2	Y2	Z2	X3	Y3	Z3	X4	Y4	Z4	X5	Y5	Z5	X6	Y6	Z6	X7	Y7	Z7	X8	Y8	Z8	X9	Y9	Z9	X10	Y10	Z10	X11	Y11	Z11	X12	Y12	Z12	X13	Y13	Z13	X14	Y14	Z14	X15	Y15	Z15	X16	Y16	Z16	X17	Y17	Z17	X18	Y18	Z18	X19	Y19	Z19	

1	0.000																												-295.05948	840.95056	-1459.44727	149.20271	712.97662	-1495.05005				-16.59452	848.06342	-1437.18530										-293.78467	52.88445	-1550.96985							
2	0.010																												-296.62521	839.65417	-1458.94666	148.16896	712.28467	-1491.44214				-17.38339	846.55896	-1439.63977										-295.08002	53.28804	-1550.73083							
3	0.020																												-297.99014	838.66443	-1459.94507	148.09642	711.13013	-1488.51270				-18.44498	843.79974	-1439.64758										-296.20377	53.26278	-1550.38770							
4	0.030																												-299.12399	838.23383	-1459.69727	147.63115	711.04340	-1486.26855				-21.12208	844.17389	-1433.38916										-297.67545	54.85991	-1549.41150							
5	0.040																												-300.73492	837.62518	-1461.10095	146.10696	709.85461	-1481.57275				-21.43919	840.24042	-1438.20154										-299.55969	56.73256	-1546.90759							
6	0.050																												-301.76065	835.36664	-1465.13123	145.72791	708.68433	-1479.08545				-22.89624	838.08795	-1435.71582										-301.50192	58.70044	-1545.51343							
7	0.060																												-303.50253	833.91858	-1465.07678	144.99847	707.46472	-1476.06006				-24.06711	838.06500	-1432.13904										-303.76395	57.92415	-1548.43457							
8	0.070													134.45547	923.74554	-1590.35669													-305.16342	834.43524	-1465.96497	144.22813	706.79413	-1472.93140				-25.20936	837.37268	-1429.77673	0.51450	393.45691	-1463.00146							-307.50385	61.60792	-1541.68225							
9	0.080													136.00377	924.44031	-1575.46021													-308.27078	834.43066	-1463.80750	143.32500	704.80878	-1467.36926				-27.26482	835.76727	-1425.57031	-0.53396	392.08594	-1462.06726							-310.49371	63.34364	-1537.46692							
10	0.090													134.62297	921.62317	-1575.39099													-309.66168	832.25085	-1465.71790	143.32729	704.70441	-1465.55042				-28.34882	834.98651	-1422.78418	-0.91070	391.83142	-1462.41052							-313.89920	65.25450	-1535.09863							
11	0.100													135.39508	922.03253	-1572.26147													-311.57068	833.01300	-1465.02563	142.49892	704.10797	-1461.25391				-29.59873	834.76794	-1419.81348	-2.28398	391.56094	-1462.65430							-318.96799	67.18350	-1530.80725							
12	0.110													134.46780	921.43573	-1563.07410													-314.03589	833.46924	-1461.48120	141.01411	703.90649	-1456.70776				-31.20864	833.58264	-1420.84558	-4.00044	391.65396	-1459.46387							-322.68134	68.01457	-1526.31543							
13	0.120													135.17299	921.82587	-1560.18750													-315.53391	832.95782	-1462.59912	139.60562	703.50848	-1451.01245				-33.52782	832.98914	-1420.52625	-4.37004	391.31836	-1459.38000							-328.55685	69.46643	-1520.55688							
14	0.130													133.98772	921.07697	-1551.07056													-316.03540	832.22321	-1465.34631	138.91328	704.02893	-1446.82349				-35.68774	832.37598	-1419.09534	-6.43657	390.73553	-1459.97949							-334.34763	71.49065	-1514.49146							
15	0.140													133.95079	921.20483	-1546.54468													-317.68488	832.89111	-1462.09314	138.89803	704.05560	-1441.71362				-36.58792	831.84802	-1419.67590	-7.95422	390.05145	-1457.04822							-341.45850	74.04780	-1506.40308							
16	0.150													132.73566	921.19318	-1539.87695													-319.35474	833.69916	-1459.51746	137.92218	704.30579	-1435.65173				-39.39089	834.60986	-1411.56836	-9.45769	390.01486	-1456.22876							-347.57492	72.53288	-1501.65051							
17	0.160													131.26398	921.89569	-1535.61499													-320.75278	833.13037	-1458.17993	137.45470	705.39001	-1430.56506				-40.20137	834.43182	-1410.95740	-12.12463	389.25403	-1454.04602							-355.39532	72.71350	-1493.96106							
18	0.170													129.59311	922.11841	-1529.54150													-322.02652	833.33838	-1457.32617	136.12727	706.21332	-1424.03174				-40.99587	833.78394	-1410.66614	-13.30463	389.23654	-1453.68164							-363.82019	74.87302	-1482.57556				-345.21368	419.95932	-1422.14111	
19	0.180													129.60027	922.84729	-1527.60486													-323.45242	832.95947	-1455.12122	134.99606	707.25665	-1417.95715				-42.12585	833.92664	-1409.08447	-14.98534	389.82211	-1451.97571							-372.92661	74.87263	-1474.71423				-350.35159	421.30051	-1419.33533	
20	0.190													126.42371	921.73889	-1517.39526													-325.16727	833.18878	-1451.87964	135.07764	708.51343	-1413.37146				-45.44585	835.37744	-1402.01685	-16.57671	388.98508	-1450.74683							-383.61401	76.73495	-1459.98157				-355.81387	426.09555	-1409.18152	
21	0.200													125.28080	922.58844	-1515.04004													-326.76700	832.79791	-1448.52380	133.14233	708.98566	-1405.71289				-46.45638	834.34503	-1403.34033	-18.52445	388.35965	-1448.11023							-392.23303	76.61734	-1452.39050				-360.27301	426.94214	-1409.50488	
22	0.210													122.91418	923.26569	-1511.11438													-325.98166	826.96698	-1459.24060	132.34761	710.01062	-1400.47339				-48.46774	833.84363	-1402.69885	-19.97318	387.83301	-1445.58630							-401.99615	77.96368	-1441.25439				-365.24500	425.95456	-1410.12695	
23	0.220													121.81056	924.19147	-1508.45764													-329.12473	827.38623	-1454.45984	130.62541	710.52625	-1393.60974				-51.83375	832.84283	-1397.71472	-22.00926	387.77438	-1443.97534							-412.10422	78.90522	-1432.21545				-369.80637	429.02722	-1399.91467	
24	0.230													119.25548	923.84692	-1503.13159													-330.61887	827.05768	-1450.66187	129.67116	711.09863	-1386.89526				-52.16515	832.04675	-1399.99365	-23.83067	386.79382	-1442.65320							-421.01508	80.20744	-1421.95032				-375.88086	429.64493	-1399.67029	
25	0.240													118.50798	923.91901	-1500.72852													-333.00107	826.86676	-1446.14929	127.75339	711.92603	-1381.03308				-53.37066	831.95135	-1396.81860	-25.47866	387.59113	-1440.83728							-429.95325	82.43860	-1410.21826				-381.45593	429.34201	-1400.72302	
26	0.250													115.80074	923.01215	-1493.11023													-336.51273	826.52136	-1441.40100	126.42349	712.20160	-1376.10474				-55.88981	833.52112	-1388.32654	-26.69771	386.57034	-1439.06909							-438.98172	83.20806	-1401.05334				-386.98273	430.91516	-1391.47681	
27	0.260													113.87445	923.54291	-1488.88037													-337.01852	826.55792	-1440.56665	124.09167	712.53064	-1369.12939				-57.72123	831.71619	-1384.12280	-28.90101	386.20053	-1437.11829							-447.20032	85.21131	-1391.62634				-392.59799	431.08914	-1387.71399	
28	0.270													112.63242	924.00787	-1487.28271													-339.86923	825.70886	-1435.88452	121.19677	713.04169	-1361.87756				-59.00630	830.21967	-1382.23193	-30.92890	384.71390	-1433.81494							-455.99463	87.89554	-1379.28174				-397.60071	431.18353	-1384.19714	
29	0.280													108.65565	923.79736	-1478.17566													-343.14508	824.33881	-1430.84558	118.39220	712.80969	-1354.94873				-61.83797	832.64264	-1372.06885	-32.55994	384.78833	-1433.34363							-465.59714	89.48617	-1371.11267				-402.43567	430.70435	-1381.88184	
30	0.290													107.65686	923.06458	-1473.06372													-346.00967	823.53320	-1426.90100	116.03192	713.04211	-1350.49988				-62.91489	830.09039	-1370.28967	-34.90725	383.78546	-1430.41980							-475.22986	92.54344	-1359.40991				-407.97491	430.64780	-1377.87256	
31	0.300													105.66206	923.59198	-1469.61951													-349.27539	822.03778	-1422.81689	114.26838	712.99921	-1344.56689				-67.07366	830.77637	-1363.67737	-36.15923	383.24756	-1429.55750							-483.93805	95.10741	-1351.60413				-413.86887	428.93051	-1376.78772	
32	0.310													103.71582	923.62231	-1466.75842													-352.56113	821.61707	-1419.00720	110.88636	713.10938	-1338.01575				-68.81219	828.60229	-1364.91821	-39.01507	382.11945	-1425.24500							-493.17255	99.02544	-1341.83069				-419.09747	429.60510	-1370.21948	
33	0.320													101.62267	922.85657	-1460.40747													-355.56183	819.61401	-1415.56812	108.37039	713.31860	-1333.18738				-72.19289	826.41284	-1363.69849	-40.47756	382.29150	-1424.21521							-502.45114	100.18286	-1334.07471				-423.23187	428.14285	-1364.22815	
34	0.330													97.54008	922.62573	-1452.33081													-360.10797	818.54883	-1409.91968	104.96896	713.48602	-1325.42651				-75.34521	826.75311	-1356.19031	-43.69711	382.07809	-1421.72717							-510.72797	102.39384	-1326.54272				-431.31668	426.89160	-1363.50708	
35	0.340				12.60356	1206.35010	-1414.40918							96.10808	922.49554	-1452.24072													-363.40109	816.79803	-1405.61487	102.03332	713.90051	-1320.43896				-78.03256	827.60388	-1349.12939	-45.37381	379.76132	-1418.39124							-519.18634	106.56108	-1315.44751				-435.64932	426.21609	-1360.12549	
36	0.350				8.22451	1206.60547	-1412.23425							91.79846	922.47491	-1443.68372													-367.12915	816.01923	-1401.55493	99.25944	714.03156	-1314.75842				-80.65012	825.06879	-1344.86267	-48.65565	379.35553	-1414.15552							-527.08777	108.40253	-1308.50720				-440.85843	425.81592	-1355.76990	
37	0.360				3.39188	1206.06714	-1408.29089							88.45226	921.56598	-1438.02966													-371.94281	814.03656	-1396.57922	94.94382	713.89697	-1306.93921				-85.69099	825.06396	-1339.53174	-50.47335	378.38217	-1412.50403							-534.45190	107.61225	-1302.83679				-446.72086	425.27905	-1348.62683	
38	0.370				-1.52025	1204.75305	-1402.33093							85.70168	922.01788	-1436.80676													-375.92648	813.04993	-1392.49158	92.21010	714.71075	-1301.93225				-90.39681	823.66870	-1335.89319	-53.01434	377.87140	-1408.22351							-540.37878	109.39738	-1297.09680				-452.05219	424.13913	-1345.99963	
39	0.380				-6.49193	1204.54175	-1399.16626							80.16990	921.26385	-1429.20081													-379.53784	810.80737	-1388.49597	88.68973	713.75684	-1297.08228				-92.50219	822.46509	-1332.90027	-55.54212	376.76718	-1404.82410							-546.86877	109.24938	-1291.22070				-456.52582	423.89734	-1336.32751	
